<svg version="1.1" id="Layer_1" xmlns="http://www.w3.org/2000/svg" xmlns:xlink="http://www.w3.org/1999/xlink" x="0px" y="0px"
	 width="100%" viewBox="0 0 512 512" enable-background="new 0 0 512 512" xml:space="preserve">
<path fill="#0E0E0E" opacity="1.000000" stroke="none" 
	d="
M307.000000,513.000000 
	C204.691513,513.000000 102.883018,513.000000 1.074532,513.000000 
	C1.049690,512.858215 1.003070,512.716431 1.003067,512.574646 
	C0.999986,342.116241 1.000000,171.657837 1.000000,1.099719 
	C171.558502,1.099719 342.117065,1.099719 512.837830,1.099719 
	C512.837830,171.666534 512.837830,342.333252 512.837830,513.000000 
	C444.466278,513.000000 375.983124,513.000000 307.000000,513.000000 
M338.259705,461.698517 
	C352.611969,452.819580 365.673553,442.414917 377.308838,430.107300 
	C394.794952,411.610779 408.595001,390.792328 417.638123,367.018616 
	C437.152344,315.717072 435.628052,264.873932 413.431305,214.685638 
	C412.235687,211.982269 412.636383,210.367462 414.733276,208.300232 
	C428.973877,194.261169 443.084900,180.090240 457.193542,165.917923 
	C461.989258,161.100540 462.151276,156.013840 457.790588,150.902405 
	C456.605682,149.513458 455.260345,148.260925 453.982330,146.951935 
	C445.036713,137.789566 436.089447,128.628830 426.895996,119.214966 
	C427.907593,117.956139 429.095917,116.393997 430.369629,114.904861 
	C449.842438,92.137917 463.188416,66.193253 470.660126,37.208157 
	C472.278503,30.929865 469.769135,25.518253 464.735382,24.181353 
	C458.490784,22.522871 454.214935,25.522617 451.901428,31.997585 
	C447.326508,44.801884 442.872894,57.705112 437.279663,70.074814 
	C431.305023,83.288048 422.485229,94.810753 412.628082,105.880104 
	C403.043945,96.289650 393.736053,86.999832 384.456146,77.682144 
	C376.500397,69.694008 372.299103,69.666008 364.411377,77.633842 
	C351.518921,90.657257 338.503387,103.562988 325.831726,116.797882 
	C322.740662,120.026314 320.364777,120.214195 316.497559,118.459442 
	C285.701080,104.485489 253.341843,99.152390 219.717072,102.196571 
	C166.621170,107.003571 122.588928,129.931656 88.243690,170.512146 
	C53.698212,211.329193 38.794582,259.077240 43.226860,312.219666 
	C47.566189,364.247681 69.649620,408.034332 109.134941,442.391113 
	C144.407776,473.082550 185.578384,489.017792 232.580139,490.007233 
	C270.394684,490.803284 305.333588,481.585938 338.259705,461.698517 
z"/>
<path fill="#FBFBFB" opacity="1.000000" stroke="none" 
	d="
M337.957214,461.900818 
	C305.333588,481.585938 270.394684,490.803284 232.580139,490.007233 
	C185.578384,489.017792 144.407776,473.082550 109.134941,442.391113 
	C69.649620,408.034332 47.566189,364.247681 43.226860,312.219666 
	C38.794582,259.077240 53.698212,211.329193 88.243690,170.512146 
	C122.588928,129.931656 166.621170,107.003571 219.717072,102.196571 
	C253.341843,99.152390 285.701080,104.485489 316.497559,118.459442 
	C320.364777,120.214195 322.740662,120.026314 325.831726,116.797882 
	C338.503387,103.562988 351.518921,90.657257 364.411377,77.633842 
	C372.299103,69.666008 376.500397,69.694008 384.456146,77.682144 
	C393.736053,86.999832 403.043945,96.289650 412.628082,105.880104 
	C422.485229,94.810753 431.305023,83.288048 437.279663,70.074814 
	C442.872894,57.705112 447.326508,44.801884 451.901428,31.997585 
	C454.214935,25.522617 458.490784,22.522871 464.735382,24.181353 
	C469.769135,25.518253 472.278503,30.929865 470.660126,37.208157 
	C463.188416,66.193253 449.842438,92.137917 430.369629,114.904861 
	C429.095917,116.393997 427.907593,117.956139 426.895996,119.214966 
	C436.089447,128.628830 445.036713,137.789566 453.982330,146.951935 
	C455.260345,148.260925 456.605682,149.513458 457.790588,150.902405 
	C462.151276,156.013840 461.989258,161.100540 457.193542,165.917923 
	C443.084900,180.090240 428.973877,194.261169 414.733276,208.300232 
	C412.636383,210.367462 412.235687,211.982269 413.431305,214.685638 
	C435.628052,264.873932 437.152344,315.717072 417.638123,367.018616 
	C408.595001,390.792328 394.794952,411.610779 377.308838,430.107300 
	C365.673553,442.414917 352.611969,452.819580 337.957214,461.900818 
M127.631737,159.092896 
	C87.501610,192.268127 65.077385,234.745911 62.193123,286.779480 
	C56.899765,382.274445 129.624435,463.817810 225.201385,470.273193 
	C338.879272,477.951141 429.724030,375.928833 408.726959,264.166565 
	C384.329773,134.306335 232.355499,77.147079 127.631737,159.092896 
M344.682159,133.823044 
	C367.990051,149.526733 387.205292,169.252838 401.705292,192.368088 
	C413.490784,180.661179 425.019135,169.209656 435.992828,158.309113 
	C415.544159,137.754288 394.845215,116.947868 374.506683,96.503769 
	C363.236969,107.731178 351.734131,119.190826 340.153717,130.727753 
	C341.355591,131.540802 342.726715,132.468353 344.682159,133.823044 
z"/>
<path fill="#202020" opacity="1.000000" stroke="none" 
	d="
M127.911011,158.873215 
	C232.355499,77.147079 384.329773,134.306335 408.726959,264.166565 
	C429.724030,375.928833 338.879272,477.951141 225.201385,470.273193 
	C129.624435,463.817810 56.899765,382.274445 62.193123,286.779480 
	C65.077385,234.745911 87.501610,192.268127 127.911011,158.873215 
M377.298309,362.854767 
	C381.414032,350.404114 385.731018,338.014648 389.546143,325.472565 
	C391.066437,320.474701 388.351776,315.876892 383.916565,313.980042 
	C379.546417,312.111084 374.572021,313.485077 372.106171,317.598633 
	C371.026642,319.399567 370.436218,321.574890 369.983795,323.658356 
	C363.551117,353.283112 349.120880,378.259460 326.251587,398.161407 
	C300.869171,420.250366 271.132599,431.182587 237.554108,431.936768 
	C231.079666,432.082184 226.787399,436.404266 227.049057,442.138031 
	C227.306671,447.782959 231.597168,451.563599 237.876419,451.426514 
	C242.704880,451.321106 247.563950,451.245880 252.347290,450.654633 
	C309.251770,443.621460 350.668243,414.357391 377.298309,362.854767 
M122.092354,222.654861 
	C128.220978,215.014954 134.273041,207.311859 140.506042,199.758102 
	C144.445084,194.984390 144.473328,189.547562 140.239548,185.514328 
	C136.274933,181.737503 130.635651,181.804108 126.494682,186.174545 
	C121.698578,191.236404 116.974815,196.420807 112.739578,201.950226 
	C98.359833,220.724075 88.863388,241.780472 84.234947,264.989075 
	C82.796722,272.200836 85.799973,277.367157 91.809006,278.374359 
	C97.713058,279.363983 102.280548,275.650482 103.666901,268.369324 
	C106.754799,252.151642 113.054390,237.246597 122.092354,222.654861 
M88.462952,286.061096 
	C83.617355,287.685364 81.074959,291.140808 81.200516,296.161499 
	C81.304337,300.312683 83.490387,303.452087 87.491310,304.897003 
	C91.418167,306.315155 95.103195,305.606323 98.014839,302.530579 
	C101.042770,299.331940 101.788506,295.524750 99.809845,291.512939 
	C97.661865,287.157867 94.051895,285.267517 88.462952,286.061096 
M374.610992,290.344696 
	C372.180969,294.476379 371.796265,299.049286 375.322235,302.195831 
	C377.683838,304.303253 381.764862,305.602203 384.954681,305.394196 
	C389.450409,305.100983 392.112579,301.464203 392.522797,296.861511 
	C392.911560,292.498993 390.976013,289.058105 387.087128,287.087860 
	C382.495636,284.761597 378.442902,285.966980 374.610992,290.344696 
z"/>
<path fill="#222222" opacity="1.000000" stroke="none" 
	d="
M344.390015,133.609467 
	C342.726715,132.468353 341.355591,131.540802 340.153717,130.727753 
	C351.734131,119.190826 363.236969,107.731178 374.506683,96.503769 
	C394.845215,116.947868 415.544159,137.754288 435.992828,158.309113 
	C425.019135,169.209656 413.490784,180.661179 401.705292,192.368088 
	C387.205292,169.252838 367.990051,149.526733 344.390015,133.609467 
z"/>
<path fill="#FBFBFB" opacity="1.000000" stroke="none" 
	d="
M377.153137,363.201843 
	C350.668243,414.357391 309.251770,443.621460 252.347290,450.654633 
	C247.563950,451.245880 242.704880,451.321106 237.876419,451.426514 
	C231.597168,451.563599 227.306671,447.782959 227.049057,442.138031 
	C226.787399,436.404266 231.079666,432.082184 237.554108,431.936768 
	C271.132599,431.182587 300.869171,420.250366 326.251587,398.161407 
	C349.120880,378.259460 363.551117,353.283112 369.983795,323.658356 
	C370.436218,321.574890 371.026642,319.399567 372.106171,317.598633 
	C374.572021,313.485077 379.546417,312.111084 383.916565,313.980042 
	C388.351776,315.876892 391.066437,320.474701 389.546143,325.472565 
	C385.731018,338.014648 381.414032,350.404114 377.153137,363.201843 
z"/>
<path fill="#FAFAFA" opacity="1.000000" stroke="none" 
	d="
M121.904655,222.964478 
	C113.054390,237.246597 106.754799,252.151642 103.666901,268.369324 
	C102.280548,275.650482 97.713058,279.363983 91.809006,278.374359 
	C85.799973,277.367157 82.796722,272.200836 84.234947,264.989075 
	C88.863388,241.780472 98.359833,220.724075 112.739578,201.950226 
	C116.974815,196.420807 121.698578,191.236404 126.494682,186.174545 
	C130.635651,181.804108 136.274933,181.737503 140.239548,185.514328 
	C144.473328,189.547562 144.445084,194.984390 140.506042,199.758102 
	C134.273041,207.311859 128.220978,215.014954 121.904655,222.964478 
z"/>
<path fill="#F7F7F7" opacity="1.000000" stroke="none" 
	d="
M88.822853,285.999512 
	C94.051895,285.267517 97.661865,287.157867 99.809845,291.512939 
	C101.788506,295.524750 101.042770,299.331940 98.014839,302.530579 
	C95.103195,305.606323 91.418167,306.315155 87.491310,304.897003 
	C83.490387,303.452087 81.304337,300.312683 81.200516,296.161499 
	C81.074959,291.140808 83.617355,287.685364 88.822853,285.999512 
z"/>
<path fill="#F7F7F7" opacity="1.000000" stroke="none" 
	d="
M374.832703,290.025513 
	C378.442902,285.966980 382.495636,284.761597 387.087128,287.087860 
	C390.976013,289.058105 392.911560,292.498993 392.522797,296.861511 
	C392.112579,301.464203 389.450409,305.100983 384.954681,305.394196 
	C381.764862,305.602203 377.683838,304.303253 375.322235,302.195831 
	C371.796265,299.049286 372.180969,294.476379 374.832703,290.025513 
z"/>
</svg>